PathFileType	4	(X/Y/Z)	53_1_3_p0_0-227_filt_butterworth.trc
DataRate	CameraRate	NumFrames	NumMarkers	Units	OrigDataRate	OrigDataStartFrame	OrigNumFrames
49.0	49.0	5	27	m	49.0	113	227
Frame#	Time	RHip			RKnee			RAnkle			RBigToe			RSmallToe			RHeel			LHip			LKnee			LAnkle			LBigToe			LSmallToe			LHeel			Neck			Head			Nose			RShoulder			RElbow			RWrist			RThumb			RIndex			RPinky			LShoulder			LElbow			LWrist			LThumb			LIndex			LPinky			
		X1	Y1	Z1	X2	Y2	Z2	X3	Y3	Z3	X4	Y4	Z4	X5	Y5	Z5	X6	Y6	Z6	X7	Y7	Z7	X8	Y8	Z8	X9	Y9	Z9	X10	Y10	Z10	X11	Y11	Z11	X12	Y12	Z12	X13	Y13	Z13	X14	Y14	Z14	X15	Y15	Z15	X16	Y16	Z16	X17	Y17	Z17	X18	Y18	Z18	X19	Y19	Z19	X20	Y20	Z20	X21	Y21	Z21	X22	Y22	Z22	X23	Y23	Z23	X24	Y24	Z24	X25	Y25	Z25	X26	Y26	Z26	X27	Y27	Z27	
113	2.306122448979592	0.41379546648110366	0.6006642004133719	0.6473158658659717	0.3897084376471214	0.7642127126988498	1.0772045805670272	0.3772138465624062	0.9015166963952292	1.5184704833486566	0.31246731779313247	0.6906051287642532	1.545062320939263	0.38033084095738234	0.6902584725711425	1.5500821513194685	0.34561033384249207	1.0018683531753338	1.577360427284696	0.21778524700540236	0.5940886674620274	0.6450097689883318	0.1849926529506666	0.7835168463034471	1.079350596519035	0.17890668280710004	0.9069784387428876	1.5019836608146233	0.18525203343797808	0.7284159091996663	1.540874460372347	0.11627636969299932	0.7579143509911027	1.5322657840596243	0.18577161826864869	0.9869397910870539	1.5698900430128289	0.3017382854814903	0.5093723811582324	0.03546351359643229	0.2844738324554966	0.5164436111922647	-0.19105106610418163	0.2762585033873743	0.4035076113350248	-0.08055179737237445	0.4589394915166053	0.5055805010234055	0.1414995451129812	0.5155060494229504	0.5805069283382501	0.39831099417389415	0.45326660282093617	0.3540086705345304	0.4878605882776445	0.39301080764673507	0.1848989949194154	0.4656189579970018	0.393868796237462	0.16911276874698528	0.509815995387607	0.3847665607522055	0.2364653383008822	0.5623669466628676	0.14789877224905873	0.5330999112187897	0.1468852746247336	0.12789819510022352	0.6520456373526197	0.39419677161715366	0.13304174173614877	0.3529182930598439	0.4562993998366043	0.12339740484957601	0.18479302934533878	0.4392746696342863	0.11898343579696227	0.15257083045131284	0.4617498380811069	0.1354599971431357	0.23411103530498095	0.505808609204325
114	2.326530612244898	0.41376259207991806	0.6006304569726835	0.6474842305956352	0.38954851859116685	0.7649266277438533	1.077872472290472	0.37723300504429635	0.9015002151578918	1.5185497815726097	0.3128844318320158	0.6910332348245266	1.5451942787294861	0.38177719248343145	0.6912315103081125	1.550518299358389	0.3456174959046686	1.0018664904159889	1.5773361298556101	0.21826192725239899	0.59282542520512	0.6448216546862525	0.18507898351450036	0.7839222177800121	1.0793606762958372	0.1789023242411727	0.9072630495038362	1.5027471659322371	0.1852394067150989	0.7284890040926112	1.5408836600503368	0.11638597523770323	0.7572949694246491	1.5320498126555973	0.18575995053472535	0.9869454146022295	1.570095787446309	0.3006661654339255	0.5059641671511772	0.03580478444251938	0.284473316534741	0.5163666424828629	-0.1910130673378581	0.2764379411539075	0.4036359350494215	-0.08054582705056176	0.45867325693228683	0.505812101769469	0.14137105555020663	0.5153322757176546	0.5814166034102012	0.3983545758195269	0.45311391448683597	0.3527006156775318	0.4878859075629512	0.39323125359231903	0.18457103801857203	0.46764860865554236	0.3952825263414668	0.16909998591047082	0.5100659083563891	0.385664713012205	0.2362849918365511	0.56325228941689	0.14705727702363292	0.5295427335431283	0.1471317463627912	0.12674328914400107	0.6410194094010309	0.3945020399180317	0.13184532276920807	0.3533062563364059	0.4582273876743188	0.12187831663718392	0.18418893073403164	0.4386058647490813	0.1187187171954989	0.1523009124966873	0.46267024944251695	0.13572760408120782	0.23247618944469595	0.50688811150867
115	2.346938775510204	0.4137173392593169	0.6006037810265339	0.6476948464227412	0.38929655176022937	0.7655690535313285	1.0793043047836044	0.37724476224129827	0.9015164829561633	1.5185701184534457	0.312784328742229	0.69081910425778	1.545324357118363	0.38214205305066945	0.6918561030084656	1.550800370021885	0.34562097745918413	1.001842588565394	1.577320802021559	0.21842008000870178	0.5927106212234176	0.645804720676409	0.18514623913935824	0.7841283234030466	1.0793582384662952	0.1789385179100249	0.9078557423734734	1.5035760419768929	0.18525232053641608	0.7284589283790601	1.5408218953107684	0.11644092329107514	0.7567284710844829	1.5318612739475692	0.18572133826679985	0.9866027420326949	1.570213500052631	0.30040648001653486	0.5051849371210664	0.035893971269022815	0.2844730372569828	0.5163041318900199	-0.19099518812656963	0.2765308790091875	0.40364310645260015	-0.08053151183083243	0.4589977087359681	0.501608281147734	0.14125855113916416	0.5145737932289589	0.5855496044295081	0.39836409973904724	0.4527213005255626	0.35352738994581623	0.4879942606339888	0.39337902915943757	0.18207558790115566	0.4692565437033921	0.396475854126135	0.16891840426969923	0.5099081425688008	0.38582010441988424	0.2362008332850371	0.5633684314429614	0.1468423872288864	0.5286883019247476	0.14719767803389602	0.12608537605195952	0.6342828344096814	0.39537342451077306	0.12987680739222912	0.3523413863125184	0.45986104061097555	0.12055125571358982	0.1842985687713104	0.4384485945175469	0.11872767313735147	0.15302931753191557	0.46270784963869105	0.13547198581618553	0.2312534788096047	0.5081258683131991
116	2.36734693877551	0.41370392380918974	0.6005982728576715	0.6478183197150015	0.38908987883087354	0.7658655836648205	1.0811445178609849	0.37724933521425197	0.9015319068839284	1.51857767711038	0.31244854762090946	0.689952605502256	1.5453688059259287	0.3820987894344749	0.6919979422778233	1.5508633101997462	0.34556115094410245	1.0017920740091477	1.5774057105407686	0.21860262880424844	0.5937264745892146	0.6476763436810917	0.18512461289168014	0.7840147313789902	1.0793132066394604	0.17896665209129048	0.9080722229180769	1.502803910353029	0.1852674323571651	0.7283245802780091	1.5407362898245591	0.11641792024354758	0.7562809885377773	1.5316899380725002	0.18567709956787382	0.9863719677814523	1.570218367399186	0.30049899202174374	0.5055344148260417	0.035879339752112153	0.2844820895790248	0.5162699385711913	-0.1910007954092452	0.27652750862315456	0.4035684650217867	-0.08050762240367455	0.4594356627212757	0.49782337434724555	0.14110438176969703	0.5134586889961098	0.5915631989499252	0.3984210573434784	0.4517765359481343	0.35698599430549516	0.48821798388893534	0.3934223961354295	0.17854845513955603	0.46995095162398437	0.3969552703443421	0.1686453776289356	0.5091035456549081	0.3859394122218509	0.23614547902378044	0.563182155319342	0.1469006223691622	0.529053301171436	0.1472052216331132	0.12533850517131281	0.6353363744031926	0.39693412826925756	0.12743796562510576	0.34847143905001376	0.4606422555765072	0.12024557474412874	0.18440454386066568	0.4383584524891055	0.11910224342464745	0.15639828235916742	0.46194363696402485	0.1352844199706647	0.23014110922641132	0.5089786126115912
117	2.3877551020408165	0.4137256112915318	0.60060248777298	0.6478340959412803	0.38897309299601845	0.7658715937344784	1.0823985104067577	0.37724939251034945	0.9015400293032098	1.5185825329311702	0.31220070177448905	0.6892537464026661	1.5453604577538593	0.382152683116234	0.692010914546364	1.550854876277447	0.34546530685917815	1.001743881957406	1.577551064573189	0.21849169913558084	0.5973630469661957	0.6490803704999331	0.1850196056083495	0.7838154191222095	1.07919458075233	0.17884000769211275	0.9079598732915501	1.500845037410798	0.185278086262569	0.7281603127950171	1.5406752003839799	0.11645054620287457	0.7561077279480591	1.5316439256543246	0.1857462983315342	0.9866580668409293	1.570341021572657	0.3005772160275382	0.5057900422797742	0.03586864952641255	0.28451738528030557	0.5162750302965295	-0.19101794542168898	0.2765147838098693	0.4034693822534457	-0.08049749707413743	0.459981575796076	0.4965625161409453	0.1410323678142551	0.5127474826270918	0.595358671314914	0.3985939027428975	0.4505504392372171	0.36192064871831825	0.48849755236501224	0.39339304327608365	0.17628854678819567	0.46992530823161166	0.3968633536817151	0.16851606485890933	0.5085575232556994	0.38669154250241533	0.23612110028378946	0.5633403161593918	0.14694595411704173	0.5293773532477931	0.14723803114553363	0.1245194187941005	0.6390732650262986	0.3981705058847476	0.12498463536328633	0.34281206233645856	0.4605466432636144	0.12041031886978912	0.18455494606585765	0.4380238720956036	0.11946164881261512	0.16136952348937236	0.46136012005748606	0.13532619279185606	0.2288571488025411	0.5091104598950724
